<svg width="267" height="104" viewBox="0 0 267 104" fill="none" xmlns="http://www.w3.org/2000/svg">
<path d="M266.989 50.5809C266.814 46.535 265.677 42.4455 263.796 38.7911C261.915 35.0932 259.334 31.8305 256.403 28.9591C253.472 26.0878 250.148 23.6081 246.692 21.3893C243.192 19.1706 239.562 17.2564 235.756 15.5597C228.188 12.1664 220.227 9.55607 212.09 7.5114C203.954 5.46665 195.643 3.90048 187.243 2.76936C178.845 1.59474 170.359 0.855165 161.872 0.420117C157.629 0.202594 153.385 0.0720805 149.143 0.0285762C144.899 -0.0149284 140.656 -0.0149284 136.456 0.0720805C128.014 0.202594 119.571 0.507127 111.26 1.11619C94.5933 2.24731 78.1454 4.33553 62.5287 7.81589C54.6984 9.55607 47.0869 11.6878 39.7817 14.3416C32.4764 16.9518 25.4773 20.0842 19.1781 24.1736C17.6033 25.1742 16.0723 26.2618 14.585 27.3929C13.0976 28.5241 11.6978 29.7422 10.3855 31.0473C7.71711 33.6141 5.35492 36.5289 3.5614 39.7047C1.76789 42.9241 0.586795 46.448 0.193097 50.0153C0.149352 50.4503 0.105608 50.8854 0.0618637 51.364C0.0181195 51.799 0.0181195 52.2341 0.0181195 52.7126C-0.0256248 53.1477 0.0181195 53.5827 0.0618637 54.0178C0.105608 54.4528 0.0618637 54.8879 0.149352 55.3229C0.280585 56.193 0.324329 57.0631 0.499306 57.9331C0.586795 58.3682 0.674284 58.8032 0.76177 59.1948C0.893002 59.6299 0.98049 60.0214 1.11173 60.4564C1.15547 60.6739 1.24296 60.8914 1.2867 61.0655L1.50542 61.6746C1.63666 62.0661 1.81163 62.5011 1.94286 62.8927C2.11785 63.2842 2.29282 63.6758 2.4678 64.0673C2.64277 64.4589 2.81775 64.8504 3.03648 65.1984C3.2552 65.5465 3.43017 65.938 3.64889 66.286C3.86761 66.6341 4.08634 66.9821 4.30506 67.3302C4.52378 67.6782 4.7425 68.0262 4.96122 68.3743C5.22369 68.7223 5.44241 69.0268 5.70487 69.3749C7.67336 71.9854 9.90431 74.2038 12.2665 76.1616C16.9909 80.0338 22.0215 82.8614 26.8771 85.1238C29.283 86.2983 31.689 87.2989 34.0074 88.1687C36.3258 89.0826 38.6005 89.8652 40.8315 90.6051C45.2497 92.0409 49.3616 93.2155 53.1237 94.1727C60.6476 96.0864 66.7281 97.2616 71.0149 98.0442C75.302 98.8274 77.839 99.2187 78.3202 99.2627C80.2449 99.5233 89.2128 100.916 101.68 102.09C107.935 102.656 115.065 103.178 122.633 103.526C126.439 103.7 130.332 103.831 134.269 103.917C138.206 104.005 142.23 104.048 146.212 103.917C154.217 103.743 162.178 103.222 169.658 102.569C171.539 102.438 173.377 102.221 175.17 102.047C176.963 101.873 178.757 101.699 180.463 101.481C182.169 101.264 183.875 101.09 185.494 100.916C187.112 100.698 188.687 100.481 190.218 100.307C202.423 98.6968 210.953 97.0436 212.396 96.783C213.14 96.6524 214.146 96.4344 215.371 96.2171C216.596 95.9565 217.996 95.6518 219.57 95.3472C222.677 94.7379 226.351 93.8247 230.025 92.9541C231.863 92.4755 233.7 91.9536 235.493 91.475C236.368 91.2144 237.287 90.9964 238.118 90.7358C238.993 90.4744 239.824 90.2138 240.612 89.9525C242.23 89.4306 243.717 88.9953 244.986 88.5607C246.299 88.0821 247.392 87.6901 248.267 87.3422C251.679 85.9937 252.16 84.5579 248.004 85.689C247.392 85.863 246.254 86.1677 244.855 86.603C244.155 86.8202 243.368 87.0375 242.493 87.2555C241.661 87.4728 240.743 87.7341 239.824 87.9948C238.905 88.2561 237.987 88.5167 237.024 88.778C236.106 88.9953 235.143 89.2566 234.269 89.4739C232.475 89.9092 230.813 90.3438 229.501 90.6484C229.325 90.6924 226.832 91.2577 222.326 92.2582C221.32 92.4322 220.227 92.6935 219.045 92.9108C220.008 92.6062 221.014 92.3016 221.976 91.9969C222.72 91.7363 223.507 91.475 224.251 91.2144C224.645 91.0837 225.039 90.9531 225.388 90.8224C225.782 90.6924 226.176 90.5618 226.526 90.3878C227.313 90.1265 228.057 89.8219 228.844 89.5612C229.632 89.2566 230.376 88.952 231.163 88.6473C232.738 88.0381 234.269 87.3422 235.843 86.6896C237.374 85.9504 238.949 85.2538 240.481 84.4272C242.055 83.6446 243.542 82.7741 245.117 81.9042C245.861 81.4256 246.648 80.9903 247.392 80.5124C248.179 80.0338 248.879 79.5111 249.623 79.0332C252.598 76.9881 255.485 74.6391 258.109 71.8981C260.69 69.1574 263.052 65.9815 264.671 62.3271C264.89 61.8921 265.064 61.4135 265.24 60.935L265.765 59.5428C265.896 59.0643 266.027 58.5857 266.158 58.0637C266.289 57.5851 266.421 57.1066 266.508 56.5845C266.64 55.5839 266.858 54.5833 266.858 53.5392L266.945 52.0166C267.033 51.5815 266.989 51.1029 266.989 50.5809ZM262.834 52.8866C262.79 53.3652 262.79 53.8003 262.746 54.2788C262.658 54.7573 262.615 55.1924 262.527 55.6709C262.484 55.8885 262.484 56.1495 262.396 56.367L262.221 57.0196C262.09 57.4546 262.002 57.9332 261.871 58.3682C261.696 58.8032 261.565 59.2383 261.39 59.6733L261.171 60.3259L260.865 60.935C260.646 61.3701 260.472 61.7615 260.296 62.1966C260.078 62.5882 259.816 62.9797 259.596 63.4147C259.378 63.8063 259.159 64.2413 258.853 64.5894C258.328 65.329 257.846 66.112 257.191 66.8081C256.884 67.1561 256.622 67.5042 256.316 67.8957C256.01 68.2437 255.703 68.5918 255.353 68.8963C252.816 71.5935 249.929 73.9432 246.911 75.9876C243.893 78.032 240.743 79.8158 237.593 81.3823C231.25 84.5145 224.863 86.8636 218.652 88.778C212.484 90.6924 206.491 92.1276 200.848 93.3021C195.205 94.4773 189.868 95.3039 184.969 95.9998C182.519 96.3477 180.157 96.609 177.882 96.8697C175.607 97.087 173.464 97.3483 171.452 97.4789C163.272 98.1748 156.929 98.3921 152.642 98.4795C144.899 98.6534 137.156 98.5228 129.545 98.1315C121.933 97.7395 114.453 97.0436 107.235 96.0864C92.7996 94.216 79.4143 91.301 67.9529 87.8208C62.2225 86.0803 56.9731 84.2532 52.2925 82.3828C47.6119 80.5124 43.5437 78.6413 40.0441 76.9448C33.0887 73.4646 28.6268 70.6362 26.9646 69.5489C25.1711 68.3743 24.3836 68.4613 24.1212 68.7658C23.4213 69.5924 22.3714 71.0715 23.7275 72.2894C23.9462 72.464 25.6523 73.6819 28.5393 75.3783C29.9829 76.2922 31.7327 77.2054 33.7449 78.3366C35.7572 79.3812 38.0319 80.599 40.5253 81.7735C45.5121 84.1666 51.4613 86.6463 57.9355 88.9087C64.4097 91.1704 71.3651 93.2155 78.4519 94.9552C81.6448 95.7385 84.8384 96.4344 87.9876 97.087C87.1126 96.957 86.2383 96.8697 85.3633 96.739C77.052 95.5645 68.5216 94.0853 59.904 92.0843C51.2864 90.0832 42.5813 87.6468 34.0949 84.2099C29.8517 82.4694 25.696 80.5124 21.759 78.1626C19.7906 76.9881 17.8658 75.7263 16.0285 74.3345C14.235 72.9419 12.4853 71.4195 10.9542 69.7664C7.84837 66.46 5.44241 62.5011 4.43629 58.1507C3.91136 55.9755 3.78012 53.7132 3.91136 51.451C4.08634 49.1888 4.56752 46.97 5.39866 44.8818C7.0172 40.6184 9.90431 36.8334 13.3164 33.5706C16.7722 30.3078 20.7966 27.567 25.0398 25.1742C29.283 22.7814 33.7887 20.7368 38.4256 18.953C40.744 18.0395 43.0625 17.2129 45.4246 16.4733C47.7868 15.6902 50.1928 14.9941 52.5987 14.2981C62.2225 11.6008 72.1084 9.64306 82.0823 8.16391C92.0563 6.68478 102.073 5.68417 112.091 5.0316C122.108 4.37904 132.126 4.0745 142.056 4.031C151.986 3.98749 161.828 4.33553 171.539 5.11861C181.251 5.9452 190.787 7.1633 200.061 8.99055C209.334 10.8177 218.346 13.167 226.876 16.3428C231.119 17.9524 235.231 19.7361 239.124 21.7809C243.018 23.8256 246.692 26.1313 250.016 28.7851C253.297 31.4389 256.228 34.4407 258.459 37.7906C260.69 41.1404 262.133 44.8383 262.658 48.6232L262.746 49.3193L262.79 50.0153C262.834 50.4939 262.834 50.9724 262.877 51.451C262.877 51.973 262.834 52.4516 262.834 52.8866Z" fill="url(#paint0_linear_453_1004)"/>
<defs>
<linearGradient id="paint0_linear_453_1004" x1="-0.00107313" y1="52.0439" x2="266.991" y2="52.0439" gradientUnits="userSpaceOnUse">
<stop stop-color="#EE417E"/>
<stop offset="0.15" stop-color="#F68743"/>
<stop offset="0.3" stop-color="#FFC711"/>
<stop offset="0.45" stop-color="#B7D433"/>
<stop offset="0.6" stop-color="#00A79D"/>
<stop offset="0.75" stop-color="#3BC3DE"/>
<stop offset="0.9" stop-color="#3D5997"/>
<stop offset="1" stop-color="#943F98"/>
</linearGradient>
</defs>
</svg>
