<svg width="205" height="23" viewBox="0 0 205 23" fill="none" xmlns="http://www.w3.org/2000/svg">
<path fill-rule="evenodd" clip-rule="evenodd" d="M74.1537 8.14492C95.9594 5.4462 116.429 4.49176 136.183 4.30036C95.4608 1.23287 54.4438 2.20646 13.9047 7.20196C36.1442 8.56472 54.5425 8.61448 74.1537 8.14492ZM10.2973 22.0621C10.1077 21.3808 10.5154 20.6803 11.2063 20.4927C26.3997 16.3993 40.8853 13.2974 54.7944 10.9649C38.3479 10.9572 21.4819 10.4608 1.19551 8.87095C0.535835 8.81864 0.0228954 8.2891 0.000819568 7.6409C-0.0225549 6.99142 0.456621 6.42998 1.10981 6.33556C50.587 -0.787019 100.89 -1.90861 150.623 2.99374C151.304 3.06137 151.807 3.63174 151.793 4.29142C161.86 4.36671 171.78 4.57852 181.632 4.78779C188.872 4.94218 196.358 5.10168 203.72 5.20121C204.434 5.21014 205.005 5.78433 205 6.48485C204.995 7.18665 204.416 7.75319 203.701 7.75319C160.239 7.75319 129.124 8.8582 104.122 9.74501C93.548 10.1214 83.8203 10.4672 74.3757 10.6931C54.7724 13.1251 34.0899 16.9722 11.8932 22.9553C11.7776 22.9847 11.6621 23 11.5491 23C10.979 23 10.4557 22.6287 10.2973 22.0621Z" fill="url(#paint0_linear_470_1599)"/>
<defs>
<linearGradient id="paint0_linear_470_1599" x1="-0.000823938" y1="11.5097" x2="204.993" y2="11.5097" gradientUnits="userSpaceOnUse">
<stop stop-color="#EE417E"/>
<stop offset="0.15" stop-color="#F68743"/>
<stop offset="0.3" stop-color="#FFC711"/>
<stop offset="0.45" stop-color="#B7D433"/>
<stop offset="0.6" stop-color="#00A79D"/>
<stop offset="0.75" stop-color="#3BC3DE"/>
<stop offset="0.9" stop-color="#3D5997"/>
<stop offset="1" stop-color="#943F98"/>
</linearGradient>
</defs>
</svg>
