<svg width="230" height="14" viewBox="0 0 230 14" fill="none" xmlns="http://www.w3.org/2000/svg">
<g clip-path="url(#clip0_453_1005)">
<mask id="mask0_453_1005" style="mask-type:luminance" maskUnits="userSpaceOnUse" x="0" y="0" width="230" height="14">
<path d="M0 0H230V14H0V0Z" fill="white"/>
</mask>
<g mask="url(#mask0_453_1005)">
<path d="M229.913 4.7176C229.879 4.66052 229.828 4.61428 229.767 4.5846L229.643 4.5356L229.585 4.5076C229.556 4.5076 229.556 4.5076 229.556 4.4796C229.519 4.39426 229.47 4.31418 229.41 4.2416C229.241 4.0714 229.023 3.95224 228.784 3.8986C228.1 3.7166 225.043 3.4786 223.588 3.3736L221.601 3.2406C220.356 3.1636 218.544 3.0866 216.229 2.9536C211.629 2.7156 205.071 2.3726 197.174 2.0296C181.358 1.3436 160.17 0.629596 138.386 0.265596C116.601 -0.133404 94.2853 -0.154404 76.2129 0.104596C58.155 0.419596 44.3986 0.923596 39.7695 1.1336C31.3702 1.5256 23.029 2.0016 16.5293 2.4286C10.0296 2.8766 5.3423 3.1636 4.27237 3.2406C3.68281 3.2686 3.55907 3.7446 3.55907 4.0316C3.6173 4.9556 3.74104 6.5096 4.24325 6.7196C4.57078 6.8596 12.286 6.2716 20.0012 5.7466C27.7164 5.2216 35.4679 4.7666 35.7955 4.7946C35.8828 4.7946 38.1974 4.7246 42.2005 4.5636C46.2037 4.4236 51.8809 4.2136 58.6717 4.0596C72.2971 3.6886 90.3986 3.4506 108.558 3.4506C126.726 3.4506 144.951 3.7446 158.744 4.0316C172.544 4.3466 181.926 4.6406 182.457 4.6406C183.498 4.6406 192.137 4.7456 200.711 4.9066C209.285 5.1166 217.772 5.2986 218.602 5.3266C220.203 5.2986 226.557 5.5646 228.573 5.3266C228.814 5.2986 229.017 5.2216 229.199 5.0886C229.287 5.0326 229.345 4.9556 229.403 4.9066C229.439 4.8786 229.469 4.8226 229.498 4.8016V4.7736H229.527C229.556 4.7736 229.614 4.7736 229.643 4.8016C229.731 4.8226 229.789 4.8716 229.854 4.9066C229.942 4.9556 229.971 4.9766 230 4.9066C230 4.8786 229.971 4.8226 229.913 4.7176Z" fill="url(#paint0_linear_453_1005)"/>
<path d="M210.566 8.28144C209.94 8.12044 207.087 7.83344 205.726 7.67244C205.632 7.67244 203.142 7.46244 198.841 7.09144C196.701 6.90944 194.088 6.69944 191.096 6.43344C190.354 6.35644 189.575 6.32844 188.775 6.27244C186.185 6.09712 183.594 5.94078 181.001 5.80344C179.16 5.69844 177.231 5.56544 175.215 5.43244C174.203 5.37644 173.199 5.29944 172.158 5.25044C171.117 5.19444 170.083 5.11044 169.014 5.06144C163.356 4.82013 157.698 4.59147 152.04 4.37544L150.257 4.29844C149.66 4.27044 149.041 4.27044 148.445 4.24244L141.086 4.08844L133.582 3.92744C132.956 3.89944 132.301 3.89944 131.675 3.87844L130.729 3.85044H129.783C128.501 3.85044 127.228 3.85044 125.954 3.82244C123.399 3.82244 120.845 3.79444 118.297 3.79444C117.016 3.79444 115.742 3.79444 114.469 3.77344H112.54C111.914 3.77344 111.259 3.77344 110.64 3.79444C105.531 3.85044 100.487 3.93444 95.53 3.98344C90.5806 4.11644 85.7404 4.24244 81.1113 4.37544C78.7895 4.43144 76.5113 4.53644 74.2841 4.61344C60.7429 5.09254 47.2156 5.88377 33.7138 6.98644C29.798 7.35744 25.8822 7.67244 22.1993 8.07144C20.3578 8.25344 18.5746 8.43544 16.8569 8.59644C15.1683 8.77844 13.5306 8.96744 12.0167 9.12144C10.6105 9.26841 9.20572 9.42708 7.80243 9.59744C6.5287 9.75844 5.37142 9.88444 4.38882 9.98944C2.46002 10.3114 1.09895 10.4654 0.596734 10.5214C0.029012 10.5704 -0.0292159 11.0464 -0.000101969 11.3404C0.116354 12.2364 0.385658 13.7904 0.858759 13.9724C1.15718 14.0774 8.31192 13.1324 15.4885 12.3624C17.2717 12.1524 19.0841 11.9704 20.7727 11.7884L25.4018 11.2844C28.1312 10.9974 30.0309 10.8364 30.1838 10.8364C30.2129 10.8364 30.7733 10.7804 31.785 10.7034C32.7967 10.6264 34.2743 10.5214 36.1521 10.3604C38.0154 10.2064 40.2717 10.0734 42.8483 9.88444C44.1584 9.81444 45.5268 9.70244 46.9825 9.59744C64.0293 8.50608 81.0991 7.77557 98.1793 7.40644C102.415 7.35744 106.659 7.28044 110.844 7.22444C111.382 7.22444 111.885 7.19644 112.416 7.19644H123.159C131.144 7.14744 138.626 7.35744 145.089 7.46244L149.726 7.53944L153.911 7.70044C156.545 7.80544 158.86 7.88244 160.789 7.93844C164.646 8.07144 166.968 8.14844 167.23 8.14844C168.213 8.07144 176.285 8.41444 184.298 8.67344C186.285 8.75044 188.301 8.80644 190.172 8.88344L195.369 9.17744C198.455 9.35944 200.617 9.46444 201.002 9.46444C202.516 9.49244 208.426 9.86344 210.355 9.65344C211.272 9.56944 211.629 8.56844 210.559 8.28144H210.566Z" fill="url(#paint1_linear_453_1005)"/>
</g>
</g>
<defs>
<linearGradient id="paint0_linear_453_1005" x1="3.55816" y1="3.33994" x2="229.992" y2="3.33994" gradientUnits="userSpaceOnUse">
<stop stop-color="#EE417E"/>
<stop offset="0.15" stop-color="#F68743"/>
<stop offset="0.3" stop-color="#FFC711"/>
<stop offset="0.45" stop-color="#B7D433"/>
<stop offset="0.6" stop-color="#00A79D"/>
<stop offset="0.75" stop-color="#3BC3DE"/>
<stop offset="0.9" stop-color="#3D5997"/>
<stop offset="1" stop-color="#943F98"/>
</linearGradient>
<linearGradient id="paint1_linear_453_1005" x1="-0.00695247" y1="8.88126" x2="211.21" y2="8.88126" gradientUnits="userSpaceOnUse">
<stop stop-color="#EE417E"/>
<stop offset="0.15" stop-color="#F68743"/>
<stop offset="0.3" stop-color="#FFC711"/>
<stop offset="0.45" stop-color="#B7D433"/>
<stop offset="0.6" stop-color="#00A79D"/>
<stop offset="0.75" stop-color="#3BC3DE"/>
<stop offset="0.9" stop-color="#3D5997"/>
<stop offset="1" stop-color="#943F98"/>
</linearGradient>
<clipPath id="clip0_453_1005">
<rect width="230" height="14" fill="white"/>
</clipPath>
</defs>
</svg>
