<svg width="186" height="13" viewBox="0 0 186 13" fill="none" xmlns="http://www.w3.org/2000/svg">
<path d="M184.162 3.46314C169.02 2.37549 153.859 1.54865 138.686 0.983011C124.79 0.476023 112.272 0.215678 101.454 0.0718027C79.7822 -0.147435 64.8059 0.195124 58.9322 0.304743C46.3308 0.65207 33.7343 1.14539 21.1455 1.7846C10.5872 2.31899 2.98373 2.83968 1.2252 2.9219C0.230626 2.9493 0 3.46999 0 3.7783C0 4.77172 0.115313 6.45026 0.90809 6.6558C1.16754 6.71061 4.43955 6.56673 9.21063 6.28583C11.6106 6.14196 14.3565 5.99808 17.3114 5.8268C20.2663 5.68978 23.3941 5.48424 26.558 5.34722C36.2585 4.80318 45.9678 4.41032 55.6818 4.16881C57.8439 4.11401 60.943 4.0866 64.8348 3.99753C70.3338 3.91532 77.4111 3.82626 85.5983 3.82626C80.5966 3.99753 77.7066 4.16881 77.3535 4.16881C75.6598 4.28528 61.6204 5.05262 47.7324 6.22417C33.8372 7.36147 20.0573 8.89614 18.7744 9.10167L15.6177 9.49219C14.2484 9.66347 12.6052 9.86901 10.9692 10.0951C7.68994 10.5473 4.33145 11.0611 2.7531 11.4653C1.16754 11.8284 0.936919 13 2.81076 13C3.92064 13 8.82866 12.5204 11.1998 12.2601C11.2863 12.2601 12.9295 12.0545 15.8483 11.7805C17.3114 11.6298 19.0915 11.4585 21.1455 11.2598C22.1689 11.1502 23.2788 11.0611 24.4752 10.9446C25.65 10.835 26.904 10.746 28.2229 10.6363C38.7236 9.69773 53.4332 8.64264 70.4202 7.86846C87.4217 7.11483 106.665 6.6832 126.253 6.59414C145.849 6.51192 165.734 6.82708 184.011 7.25185C184.27 7.25827 184.528 7.21512 184.77 7.12495C185.011 7.03478 185.232 6.89943 185.417 6.72692C185.603 6.55441 185.75 6.34826 185.85 6.12068C185.95 5.89309 186.001 5.64872 186 5.40203C185.971 4.37435 185.186 3.51795 184.162 3.46314Z" fill="url(#paint0_linear_453_1019)"/>
<defs>
<linearGradient id="paint0_linear_453_1019" x1="-0.000747573" y1="6.50548" x2="185.994" y2="6.50548" gradientUnits="userSpaceOnUse">
<stop stop-color="#EE417E"/>
<stop offset="0.15" stop-color="#F68743"/>
<stop offset="0.3" stop-color="#FFC711"/>
<stop offset="0.45" stop-color="#B7D433"/>
<stop offset="0.6" stop-color="#00A79D"/>
<stop offset="0.75" stop-color="#3BC3DE"/>
<stop offset="0.9" stop-color="#3D5997"/>
<stop offset="1" stop-color="#943F98"/>
</linearGradient>
</defs>
</svg>
