<svg width="840" height="14" viewBox="0 0 840 14" fill="none" xmlns="http://www.w3.org/2000/svg">
<path d="M838.957 8.36477C837.788 9.40843 836.034 10.1092 834.438 10.1986C779.931 13.2849 725.329 14.4478 670.743 13.6129C616.931 12.7929 563.277 9.34879 509.544 6.72473C455.211 4.07084 400.799 3.01227 346.418 4.62249C292.354 6.20289 238.589 12.0772 184.557 13.6725C154.166 14.582 123.791 13.4638 93.4322 12.107C62.5359 10.7205 31.6396 9.31897 0.759109 7.93239C-0.852872 7.85785 0.537857 6.3669 1.05938 5.9047C2.11823 4.9505 4.06209 4.0112 5.57925 4.07084C33.1568 5.30833 60.7343 6.56072 88.3276 7.79821C115.368 9.02079 142.424 10.2881 169.511 10.1688C223.623 9.91535 277.451 3.6981 331.468 1.46168C385.849 -0.789651 440.324 -0.312547 494.689 1.9686C548.39 4.23484 601.996 8.08149 655.729 9.3637C716.921 10.8397 778.176 9.81099 839.274 6.33708C840.933 6.24762 839.4 7.99203 838.973 8.36477H838.957Z" fill="url(#paint0_linear_353_40)"/>
<defs>
<linearGradient id="paint0_linear_353_40" x1="0.000530015" y1="6.9931" x2="840.001" y2="6.9931" gradientUnits="userSpaceOnUse">
<stop stop-color="#EE417E"/>
<stop offset="0.15" stop-color="#F68743"/>
<stop offset="0.3" stop-color="#FFC711"/>
<stop offset="0.45" stop-color="#B7D433"/>
<stop offset="0.6" stop-color="#00A79D"/>
<stop offset="0.75" stop-color="#3BC3DE"/>
<stop offset="0.9" stop-color="#3D5997"/>
<stop offset="1" stop-color="#943F98"/>
</linearGradient>
</defs>
</svg>
