<svg width="141" height="30" viewBox="0 0 141 30" fill="none" xmlns="http://www.w3.org/2000/svg">
<g id="institut-oris_logo_02 1" clip-path="url(#clip0_353_19)">
<g id="Group">
<g id="Group_2">
<g id="Group_3">
<path id="Vector" d="M5.33081 8.81266V20.5424C5.33081 21.2991 5.49074 21.8397 5.75728 22.11C6.02382 22.3802 6.5569 22.5424 7.2499 22.5424V23.0829C6.93006 23.0829 6.50359 23.0289 5.86389 23.0289C5.2242 23.0289 4.5845 22.9748 3.9448 22.9748C3.3051 22.9748 2.66541 22.9748 2.02571 23.0289C1.38601 23.0289 0.906238 23.0829 0.586389 23.0829V22.5424C1.27939 22.5424 1.75917 22.4343 2.07902 22.11C2.39887 21.7856 2.50548 21.2991 2.50548 20.5424V12.0559C2.50548 11.2451 2.39887 10.6505 2.07902 10.2721C1.75917 9.89374 1.27939 9.67752 0.533081 9.67752V9.13698C1.11947 9.19104 1.65255 9.19104 2.18563 9.19104C2.77202 9.19104 3.35841 9.13698 3.89149 9.08293C4.42457 9.08293 4.90435 8.97482 5.33081 8.81266ZM3.73157 2.32617C4.26465 2.32617 4.74442 2.48833 5.11758 2.86671C5.49074 3.19104 5.65066 3.67752 5.65066 4.16401C5.65066 4.6505 5.49074 5.13698 5.11758 5.46131C4.74442 5.83969 4.26465 6.00185 3.73157 6.00185C3.19849 6.00185 2.71871 5.83969 2.34556 5.46131C1.9724 5.13698 1.81248 4.6505 1.81248 4.16401C1.81248 3.67752 1.9724 3.19104 2.34556 2.86671C2.71871 2.48833 3.19849 2.32617 3.73157 2.32617Z" fill="#231F20"/>
<path id="Vector_2" d="M17.8049 8.75781C18.4979 8.75781 19.0843 8.86592 19.5641 9.02808C19.9905 9.19024 20.417 9.46052 20.6835 9.78484C21.0034 10.1092 21.2166 10.5957 21.3765 11.1362C21.5365 11.6767 21.5898 12.3794 21.5898 13.2984V20.5416C21.5898 21.2984 21.7497 21.8389 22.0162 22.1092C22.2828 22.3794 22.8159 22.5416 23.5089 22.5416V23.0821C23.189 23.0821 22.7092 23.0281 22.0695 23.0281C21.4299 23.0281 20.7902 22.974 20.2038 22.974C19.6174 22.974 18.9777 22.974 18.3913 23.0281C17.8049 23.0281 17.3251 23.0821 17.0586 23.0821V22.5416C17.645 22.5416 18.0714 22.4335 18.338 22.1092C18.6045 21.8389 18.7111 21.2984 18.7111 20.5416V12.5416C18.7111 12.0011 18.6578 11.5686 18.6045 11.1362C18.4979 10.7038 18.338 10.3794 18.0181 10.1092C17.6983 9.83889 17.2718 9.73079 16.6854 9.73079C16.0457 9.73079 15.4593 9.947 14.9263 10.2713C14.3932 10.6497 14.02 11.1902 13.7535 11.8389C13.4869 12.4875 13.327 13.2443 13.327 14.0551V20.5416C13.327 21.2984 13.4336 21.8389 13.7002 22.1092C13.9667 22.3794 14.3932 22.5416 14.9796 22.5416V23.0821C14.713 23.0821 14.2866 23.0281 13.7002 23.0281C13.1138 23.0281 12.5274 22.974 11.8877 22.974C11.3013 22.974 10.6616 22.974 9.9686 23.0281C9.2756 23.0821 8.84913 23.0821 8.47598 23.0821V22.5416C9.16898 22.5416 9.64876 22.4335 9.9686 22.1092C10.2885 21.7848 10.3951 21.2984 10.3951 20.5416V12.0551C10.3951 11.2443 10.2885 10.6497 9.9686 10.2713C9.64876 9.89295 9.16898 9.67673 8.42267 9.67673V9.13619C9.00906 9.19024 9.54214 9.19024 10.0752 9.19024C10.6616 9.19024 11.248 9.13619 11.7811 9.08214C12.3142 9.02808 12.7939 8.91997 13.2204 8.81187V11.7308C13.7002 10.5957 14.3399 9.83889 15.1395 9.40646C16.0457 8.97403 16.8987 8.75781 17.8049 8.75781Z" fill="#231F20"/>
<path id="Vector_3" d="M34.3304 1.24414L34.5437 1.62252C33.5308 2.16306 32.5713 2.86576 31.7716 3.78468C30.972 4.64955 30.3856 5.56846 29.9592 6.48738H29.4794C29.1062 5.56846 28.4665 4.64955 27.6669 3.78468C26.8673 2.91982 25.9611 2.16306 24.8949 1.62252L25.1081 1.24414C26.0677 1.56846 27.0272 1.94684 27.9868 2.37928C28.9463 2.81171 29.6926 3.29819 30.2257 3.73063C30.7055 3.29819 31.2919 2.81171 32.0382 2.37928C32.8378 1.94684 33.5841 1.56846 34.3304 1.24414ZM29.586 8.75765C30.279 8.75765 30.9187 8.86576 31.4518 9.08198C31.9849 9.29819 32.358 9.51441 32.5713 9.67657C33.1577 10.1631 33.5308 9.83874 33.6374 8.75765H34.2238C34.1705 9.24414 34.1705 9.89279 34.1172 10.5955C34.1172 11.2982 34.1172 12.2712 34.1172 13.4063H33.5308C33.4242 12.7577 33.2643 12.109 32.9977 11.4604C32.7312 10.8117 32.358 10.3252 31.8783 9.89279C31.3985 9.46036 30.7588 9.24414 29.9592 9.24414C29.3728 9.24414 28.893 9.4063 28.4665 9.73063C28.0934 10.055 27.8802 10.5414 27.8802 11.1901C27.8802 11.7306 28.0401 12.2171 28.3599 12.5955C28.6798 12.9739 29.1062 13.3522 29.586 13.6766C30.0658 14.0009 30.6522 14.3793 31.2386 14.7577C31.8783 15.1901 32.4647 15.6766 32.9977 16.109C33.5308 16.5414 33.9573 17.0279 34.2771 17.5685C34.597 18.109 34.7569 18.7577 34.7569 19.4604C34.7569 20.2712 34.5437 20.9739 34.1172 21.5685C33.6907 22.1631 33.1043 22.5955 32.4113 22.8658C31.7183 23.136 30.9187 23.2982 30.0658 23.2982C29.6393 23.2982 29.2662 23.2441 28.893 23.1901C28.5199 23.136 28.2 23.0279 27.8268 22.8658C27.6136 22.7577 27.4537 22.6495 27.2405 22.5414C27.0272 22.4333 26.8673 22.3252 26.7074 22.2171C26.5474 22.109 26.3875 22.109 26.2276 22.2712C26.0677 22.4333 25.9611 22.7036 25.9078 23.136H25.3214C25.3747 22.5414 25.3747 21.8387 25.3747 21.0279C25.3747 20.2171 25.3747 19.082 25.3747 17.7306H25.9611C26.0677 18.7036 26.2809 19.6225 26.4941 20.3793C26.7607 21.136 27.1338 21.7306 27.6136 22.1631C28.0934 22.5955 28.7864 22.8117 29.6393 22.8117C29.9592 22.8117 30.3323 22.7577 30.6522 22.5955C30.972 22.4333 31.2919 22.2171 31.5051 21.8387C31.7183 21.5144 31.825 21.0279 31.825 20.4874C31.825 19.6766 31.5584 19.0279 31.0253 18.5414C30.4923 18.055 29.7992 17.4604 28.9463 16.9198C28.3599 16.4874 27.7735 16.055 27.2405 15.6225C26.7074 15.1901 26.2809 14.7036 25.9078 14.1631C25.5879 13.6225 25.3747 12.9739 25.3747 12.2712C25.3747 11.4604 25.5879 10.8117 25.9611 10.2712C26.3342 9.73063 26.8673 9.35225 27.507 9.08198C28.1467 8.86576 28.8397 8.75765 29.586 8.75765Z" fill="#231F20"/>
<path id="Vector_4" d="M41.3138 4.65039V9.13688H44.992V9.67742H41.3138V20.3261C41.3138 21.0828 41.4204 21.5693 41.7402 21.8936C42.0068 22.218 42.3799 22.3801 42.913 22.3801C43.3928 22.3801 43.7659 22.1639 44.1391 21.7855C44.5122 21.4071 44.8321 20.7585 45.0986 19.8936L45.6317 20.1098C45.4185 21.0828 45.0453 21.8936 44.5122 22.5423C43.9792 23.1909 43.1795 23.5153 42.1134 23.5153C41.527 23.5153 40.9939 23.4612 40.5674 23.299C40.141 23.1369 39.8211 22.9207 39.5013 22.6504C39.1281 22.218 38.8616 21.7315 38.7017 21.1369C38.5417 20.5423 38.4884 19.7855 38.4884 18.8666V9.67742H36.0363V9.13688H38.4884V5.19093C39.0215 5.19093 39.5546 5.13688 40.0344 5.02877C40.4608 4.97471 40.8873 4.86661 41.3138 4.65039Z" fill="#231F20"/>
<path id="Vector_5" d="M50.8559 8.81266V20.5424C50.8559 21.2991 51.0158 21.8397 51.2824 22.11C51.5489 22.3802 52.082 22.5424 52.775 22.5424V23.0829C52.4552 23.0829 52.0287 23.0289 51.389 23.0289C50.7493 23.0289 50.1096 22.9748 49.4699 22.9748C48.8302 22.9748 48.1905 22.9748 47.5508 23.0289C46.9111 23.0289 46.4313 23.0829 46.1115 23.0829V22.5424C46.8045 22.5424 47.2843 22.4343 47.6041 22.11C47.924 21.7856 47.9773 21.2991 47.9773 20.5424V12.0559C47.9773 11.2451 47.8707 10.6505 47.5508 10.2721C47.231 9.89374 46.7512 9.67752 46.0049 9.67752V9.13698C46.5913 9.19104 47.1244 9.19104 47.6574 9.19104C48.2438 9.19104 48.8302 9.13698 49.3633 9.08293C49.9497 9.08293 50.4295 8.97482 50.8559 8.81266ZM49.2567 2.32617C49.7898 2.32617 50.2695 2.48833 50.6427 2.86671C51.0158 3.19104 51.1758 3.67752 51.1758 4.16401C51.1758 4.6505 51.0158 5.13698 50.6427 5.46131C50.2695 5.83969 49.7898 6.00185 49.2567 6.00185C48.7236 6.00185 48.2438 5.83969 47.8707 5.46131C47.4975 5.13698 47.3376 4.6505 47.3376 4.16401C47.3376 3.67752 47.4975 3.19104 47.8707 2.86671C48.2438 2.48833 48.7236 2.32617 49.2567 2.32617Z" fill="#231F20"/>
<path id="Vector_6" d="M58.6923 4.65039V9.13688H62.3706V9.67742H58.6923V20.3261C58.6923 21.0828 58.7989 21.5693 59.1188 21.8936C59.3853 22.218 59.7585 22.3801 60.2915 22.3801C60.7713 22.3801 61.1445 22.1639 61.5176 21.7855C61.8908 21.4071 62.2106 20.7585 62.4772 19.8936L63.0103 20.1098C62.797 21.0828 62.4239 21.8936 61.8908 22.5423C61.3577 23.1909 60.5581 23.5153 59.4919 23.5153C58.9055 23.5153 58.3725 23.4612 57.946 23.299C57.5195 23.1369 57.1997 22.9207 56.8798 22.6504C56.5067 22.218 56.2401 21.7315 56.0802 21.1369C55.9203 20.5423 55.867 19.7855 55.867 18.8666V9.67742H53.4148V9.13688H55.867V5.19093C56.4001 5.19093 56.9331 5.13688 57.4129 5.02877C57.8394 4.97471 58.3191 4.86661 58.6923 4.65039Z" fill="#231F20"/>
<path id="Vector_7" d="M75.9641 8.8125V20.1098C75.9641 20.9206 76.124 21.5152 76.3905 21.8936C76.6571 22.272 77.1902 22.4882 77.8832 22.4882V23.0287C77.3501 22.9747 76.7637 22.9747 76.2306 22.9747C75.6442 22.9747 75.1111 22.9747 74.5781 23.0287C74.045 23.0828 73.5652 23.1909 73.0854 23.299V20.3801C72.659 21.4612 72.0193 22.2179 71.2197 22.7044C70.42 23.1909 69.6204 23.4071 68.7142 23.4071C68.0745 23.4071 67.4881 23.299 67.0083 23.1368C66.5285 22.9747 66.1554 22.7044 65.8888 22.3801C65.569 22.0017 65.3558 21.5693 65.2491 20.9747C65.1425 20.4341 65.0359 19.6774 65.0359 18.8125V12.0557C65.0359 11.2449 64.9293 10.6503 64.6094 10.272C64.2896 9.89358 63.8631 9.67737 63.1168 9.67737V9.13682C63.7032 9.19088 64.2363 9.19088 64.7694 9.19088C65.3558 9.19088 65.9421 9.13682 66.4752 9.08277C67.0083 9.02872 67.4881 8.92061 67.9679 8.8125V19.6233C67.9679 20.1639 68.0212 20.5963 68.0745 21.0287C68.1278 21.4612 68.341 21.7855 68.6076 22.0557C68.8741 22.326 69.3006 22.4341 69.887 22.4341C70.5267 22.4341 71.0597 22.2179 71.5395 21.8395C72.0193 21.4612 72.3924 20.9747 72.7123 20.326C73.0321 19.6774 73.1387 18.9747 73.1387 18.1639V12.0557C73.1387 11.2449 73.0321 10.6503 72.7123 10.272C72.3924 9.89358 71.9127 9.67737 71.1663 9.67737V9.13682C71.7527 9.19088 72.2858 9.19088 72.8189 9.19088C73.4053 9.19088 73.9384 9.13682 74.4715 9.08277C75.0045 9.08277 75.5376 8.97466 75.9641 8.8125Z" fill="#231F20"/>
<path id="Vector_8" d="M83.8003 4.65039V9.13688H87.4786V9.67742H83.8003V20.3261C83.8003 21.0828 83.9069 21.5693 84.2268 21.8936C84.4933 22.218 84.8665 22.3801 85.3996 22.3801C85.8793 22.3801 86.2525 22.1639 86.6257 21.7855C86.9988 21.4071 87.3187 20.7585 87.5852 19.8936L88.1183 20.1098C87.9051 21.0828 87.5319 21.8936 86.9988 22.5423C86.4657 23.1909 85.6661 23.5153 84.6 23.5153C84.0136 23.5153 83.4805 23.4612 83.054 23.299C82.6276 23.1369 82.3077 22.9207 81.9879 22.6504C81.6147 22.218 81.3482 21.7315 81.1882 21.1369C81.0283 20.5423 80.975 19.7855 80.975 18.8666V9.67742H78.5228V9.13688H80.975V5.19093C81.5081 5.19093 82.0412 5.13688 82.5209 5.02877C82.9474 4.97471 83.4272 4.86661 83.8003 4.65039Z" fill="#231F20"/>
<path id="Vector_9" d="M101.712 8.75781C102.885 8.75781 103.951 9.02808 104.91 9.51457C105.87 10.0011 106.563 10.8119 107.149 11.8929C107.682 12.974 107.949 14.3794 107.949 16.1632C107.949 17.8929 107.682 19.2984 107.149 20.3794C106.616 21.4605 105.87 22.2173 104.91 22.7578C104.004 23.2443 102.938 23.5146 101.712 23.5146C100.539 23.5146 99.473 23.2443 98.5668 22.7578C97.6072 22.2713 96.8609 21.4605 96.3278 20.3794C95.7947 19.2984 95.5282 17.8929 95.5282 16.1632C95.5282 14.4335 95.7947 12.974 96.3278 11.8929C96.8609 10.8119 97.6072 10.0011 98.5668 9.51457C99.5263 9.02808 100.539 8.75781 101.712 8.75781ZM101.712 9.29835C100.806 9.29835 100.059 9.83889 99.473 10.92C98.8866 12.0011 98.6201 13.7308 98.6201 16.1632C98.6201 18.5956 98.8866 20.3254 99.473 21.3524C100.059 22.3794 100.806 22.92 101.712 22.92C102.618 22.92 103.364 22.3794 103.951 21.3524C104.537 20.2713 104.857 18.5416 104.857 16.1632C104.857 13.7308 104.537 12.0011 103.951 10.92C103.418 9.83889 102.618 9.29835 101.712 9.29835Z" fill="#231F20"/>
<path id="Vector_10" d="M118.397 8.75781C118.93 8.75781 119.357 8.86592 119.73 9.08214C120.103 9.29835 120.37 9.56862 120.53 9.89295C120.743 10.2173 120.796 10.5956 120.796 11.0281C120.796 11.5686 120.636 12.0011 120.316 12.3794C119.997 12.7578 119.57 12.92 119.09 12.92C118.664 12.92 118.291 12.8119 117.971 12.4875C117.651 12.1632 117.491 11.8389 117.491 11.4065C117.491 11.0281 117.598 10.6497 117.811 10.3794C118.024 10.1092 118.237 9.89295 118.504 9.73079C118.344 9.56862 118.131 9.51457 117.864 9.56862C117.384 9.56862 116.958 9.73079 116.532 10.0551C116.105 10.3254 115.785 10.7038 115.465 11.1902C115.199 11.6767 114.932 12.1632 114.826 12.6497C114.719 13.1362 114.612 13.6227 114.612 14.0551V20.2713C114.612 21.1362 114.879 21.7308 115.359 22.0551C115.839 22.3254 116.478 22.4875 117.384 22.4875V23.0281C116.958 23.0281 116.372 22.974 115.625 22.974C114.879 22.974 114.079 22.92 113.226 22.92C112.587 22.92 111.947 22.92 111.307 22.974C110.668 22.974 110.188 23.0281 109.815 23.0281V22.4875C110.508 22.4875 110.988 22.3794 111.307 22.0551C111.627 21.7308 111.734 21.2443 111.734 20.4875V12.0551C111.734 11.2443 111.627 10.6497 111.307 10.2713C110.988 9.89295 110.508 9.67673 109.761 9.67673V9.13619C110.348 9.19024 110.881 9.19024 111.414 9.19024C112 9.19024 112.587 9.13619 113.12 9.08214C113.653 9.02808 114.133 8.91997 114.559 8.81187V11.947C114.772 11.4065 115.039 10.92 115.412 10.4335C115.785 9.947 116.212 9.56862 116.691 9.2443C117.278 8.91997 117.811 8.75781 118.397 8.75781Z" fill="#231F20"/>
<path id="Vector_11" d="M126.66 8.81266V20.5424C126.66 21.2991 126.82 21.8397 127.087 22.11C127.353 22.3802 127.886 22.5424 128.579 22.5424V23.0829C128.259 23.0829 127.833 23.0289 127.193 23.0289C126.554 23.0289 125.914 22.9748 125.274 22.9748C124.634 22.9748 123.995 22.9748 123.355 23.0289C122.715 23.0289 122.236 23.0829 121.916 23.0829V22.5424C122.609 22.5424 123.089 22.4343 123.408 22.11C123.728 21.7856 123.835 21.2991 123.835 20.5424V12.0559C123.835 11.2451 123.728 10.6505 123.408 10.2721C123.089 9.89374 122.609 9.67752 121.862 9.67752V9.13698C122.449 9.19104 122.982 9.19104 123.515 9.19104C124.101 9.19104 124.688 9.13698 125.221 9.08293C125.754 9.08293 126.234 8.97482 126.66 8.81266ZM125.061 2.32617C125.594 2.32617 126.074 2.48833 126.447 2.86671C126.82 3.19104 126.98 3.67752 126.98 4.16401C126.98 4.6505 126.82 5.13698 126.447 5.46131C126.074 5.83969 125.594 6.00185 125.061 6.00185C124.528 6.00185 124.048 5.83969 123.675 5.46131C123.302 5.13698 123.142 4.6505 123.142 4.16401C123.142 3.67752 123.302 3.19104 123.675 2.86671C124.048 2.48833 124.528 2.32617 125.061 2.32617Z" fill="#231F20"/>
<path id="Vector_12" d="M134.816 8.75781C135.509 8.75781 136.149 8.86592 136.682 9.08214C137.215 9.29835 137.588 9.51457 137.802 9.67673C138.388 10.1632 138.761 9.83889 138.868 8.75781H139.454C139.401 9.2443 139.401 9.89295 139.347 10.5957C139.347 11.2984 139.347 12.2713 139.347 13.4065H138.761C138.654 12.7578 138.495 12.1092 138.228 11.4605C137.961 10.8119 137.588 10.3254 137.109 9.89295C136.629 9.46051 135.989 9.2443 135.189 9.2443C134.603 9.2443 134.123 9.40646 133.697 9.73079C133.324 10.0551 133.11 10.5416 133.11 11.1902C133.11 11.7308 133.27 12.2173 133.59 12.5956C133.91 12.974 134.337 13.3524 134.816 13.6767C135.296 14.0011 135.882 14.3794 136.469 14.7578C137.109 15.1902 137.695 15.6767 138.228 16.1092C138.761 16.5416 139.188 17.0281 139.507 17.5686C139.827 18.1092 139.987 18.7578 139.987 19.4605C139.987 20.2713 139.774 20.974 139.347 21.5686C138.921 22.1632 138.335 22.5956 137.642 22.8659C136.949 23.1362 136.149 23.2984 135.296 23.2984C134.87 23.2984 134.496 23.2443 134.123 23.1902C133.75 23.1362 133.43 23.0281 133.057 22.8659C132.844 22.7578 132.684 22.6497 132.471 22.5416C132.257 22.4335 132.098 22.3254 131.938 22.2173C131.778 22.1092 131.618 22.1092 131.458 22.2713C131.298 22.4335 131.191 22.7038 131.138 23.1362H130.552C130.605 22.5416 130.605 21.8389 130.605 21.0281C130.605 20.2173 130.605 19.0821 130.605 17.7308H131.191C131.298 18.7038 131.511 19.6227 131.724 20.3794C131.991 21.1362 132.364 21.7308 132.844 22.1632C133.324 22.5956 134.017 22.8119 134.87 22.8119C135.189 22.8119 135.563 22.7578 135.882 22.5956C136.202 22.4335 136.522 22.2173 136.735 21.8389C136.949 21.5146 137.055 21.0281 137.055 20.4875C137.055 19.6767 136.789 19.0281 136.256 18.5416C135.723 18.0551 135.03 17.4605 134.177 16.92C133.59 16.4875 133.004 16.0551 132.471 15.6227C131.938 15.1902 131.511 14.7038 131.138 14.1632C130.818 13.6227 130.605 12.974 130.605 12.2713C130.605 11.4605 130.818 10.8119 131.191 10.2713C131.564 9.73079 132.098 9.35241 132.737 9.08214C133.43 8.86592 134.123 8.75781 134.816 8.75781Z" fill="#231F20"/>
</g>
</g>
<g id="Group_4">
<g id="Group_5">
<path id="Vector_13" d="M116.745 30.0005C115.412 30.0005 114.079 29.9465 112.8 29.8924C111.627 29.8384 110.454 29.7303 109.282 29.6762C107.576 29.5681 105.817 29.4059 104.111 29.4059C102.725 29.4059 101.392 29.46 100.006 29.514L95.3149 29.7303C94.9417 29.7303 94.6752 29.5681 94.5153 29.4059C94.2487 29.1357 94.1421 28.8113 94.2487 28.487C94.3554 28.1627 94.6752 27.9465 94.9951 27.9465L99.9527 27.7303C101.552 27.6762 103.205 27.5681 104.91 27.6222C106.403 27.6762 107.842 27.7843 109.282 27.8924C110.721 28.0005 112.16 28.1086 113.6 28.1627C116.265 28.2708 119.144 28.2168 122.289 28.0546C122.982 28.0005 123.675 28.0005 124.368 27.9465C126.553 27.8384 128.792 27.6762 130.978 27.6762C133.91 27.6222 136.895 27.6762 139.827 27.8924C140.094 27.8924 140.36 28.0005 140.574 28.2167C140.84 28.487 140.947 28.8654 140.787 29.1897C140.627 29.514 140.36 29.6762 139.987 29.6762C136.735 29.46 133.43 29.4059 130.178 29.514C128.419 29.5681 126.66 29.6762 124.901 29.7843H124.794C123.728 29.8384 122.609 29.8924 121.542 29.9465C119.89 30.0005 118.291 30.0005 116.745 30.0005Z" fill="url(#paint0_linear_353_19)"/>
</g>
</g>
</g>
</g>
<defs>
<linearGradient id="paint0_linear_353_19" x1="94.2346" y1="28.8227" x2="140.881" y2="28.8227" gradientUnits="userSpaceOnUse">
<stop stop-color="#ED417E"/>
<stop offset="0.15" stop-color="#F58642"/>
<stop offset="0.3" stop-color="#FFC610"/>
<stop offset="0.45" stop-color="#B7D333"/>
<stop offset="0.6" stop-color="#00A69C"/>
<stop offset="0.75" stop-color="#3BC2DD"/>
<stop offset="0.9" stop-color="#3C5896"/>
<stop offset="1" stop-color="#933F96"/>
</linearGradient>
<clipPath id="clip0_353_19">
<rect width="141" height="30" fill="white"/>
</clipPath>
</defs>
</svg>
